<?xml version="1.0" encoding="utf-8"?>
<!-- Generator: Adobe Illustrator 16.0.3, SVG Export Plug-In . SVG Version: 6.00 Build 0)  -->
<!DOCTYPE svg PUBLIC "-//W3C//DTD SVG 1.1//EN" "http://www.w3.org/Graphics/SVG/1.1/DTD/svg11.dtd">
<svg version="1.1" xmlns="http://www.w3.org/2000/svg" xmlns:xlink="http://www.w3.org/1999/xlink" x="0px" y="0px" width="612px"
	 height="792px" viewBox="0 0 612 792" enable-background="new 0 0 612 792" xml:space="preserve">
<g id="Layer_1">
	<path fill="#D7E9EA" d="M195.05,375.4c0,99.74,80.85,180.59,180.59,180.59c6.17,0,12.271-0.311,18.28-0.91
		c50.6-5.09,95.03-31.061,124.561-69.17c-19.561,36.14-48.421,66.51-83.37,87.899c-35.28,21.591-76.78,34.04-121.17,34.04
		c-128.38,0-232.45-104.069-232.45-232.45c0-128.37,104.07-232.44,232.45-232.44c66.18,0,125.899,27.66,168.239,72.05
		c14.19,14.88,26.431,31.65,36.301,49.89c-15.511-20.01-35.131-36.68-57.591-48.73c-25.39-13.62-54.42-21.35-85.25-21.35
		C275.9,194.82,195.05,275.67,195.05,375.4z"/>
	<linearGradient id="SVGID_1_" gradientUnits="userSpaceOnUse" x1="195.0498" y1="285.1099" x2="543.4697" y2="285.1099">
		<stop  offset="0" style="stop-color:#00AEEF"/>
		<stop  offset="1" style="stop-color:#1C75BC"/>
	</linearGradient>
	<path fill="url(#SVGID_1_)" d="M543.47,338.53c-14.3,22.18-39.22,36.87-67.569,36.87c-16.15,0-31.19-4.77-43.79-12.98
		c-3.11-28.72-16.46-54.37-36.32-73.23c-21.32-20.24-50.14-32.67-81.85-32.67c-65.661,0-118.891,53.23-118.891,118.88
		c0-99.73,80.85-180.58,180.59-180.58c30.83,0,59.86,7.73,85.25,21.35c22.46,12.05,42.08,28.72,57.591,48.73
		C530.69,287.45,539.28,312.26,543.47,338.53z"/>
	<linearGradient id="SVGID_2_" gradientUnits="userSpaceOnUse" x1="195.0498" y1="465.6953" x2="524.2695" y2="465.6953">
		<stop  offset="0" style="stop-color:#00AEEF"/>
		<stop  offset="1" style="stop-color:#1C75BC"/>
	</linearGradient>
	<path fill="url(#SVGID_2_)" d="M524.27,474.47c-1.829,3.87-3.76,7.69-5.789,11.44c-29.53,38.109-73.961,64.08-124.561,69.17
		c-6.01,0.6-12.11,0.91-18.28,0.91c-99.74,0-180.59-80.851-180.59-180.59c0,65.66,53.23,118.89,118.891,118.89
		c19.1,0,37.149-4.51,53.14-12.521c26.81-13.409,47.83-36.659,58.35-65.02c6.69-1.82,13.73-2.78,20.99-2.78
		C483.94,413.97,515.45,439.69,524.27,474.47z"/>
	<path fill="none" d="M416.026,436.35"/>
</g>
<g id="Layer_3" display="none">
</g>
<g id="Layer_4" display="none">
</g>
</svg>
